<svg xmlns="http://www.w3.org/2000/svg" width="46" height="48" viewBox="0 0 100 105">
  <g fill="#000000">
    <path d="M 50,2 L 42,36 L 47,40 L 50,35 L 53,40 L 58,36 Z" />
    <path d="M 28,6 L 24,35 L 30,38 L 34,32 Z" />
    <path d="M 72,6 L 76,35 L 70,38 L 66,32 Z" />
    
    <polygon points="38,26 35,40 41,40" />
    <polygon points="62,26 65,40 59,40" />

    <path d="M 47,40 C 20,35 15,60 26,68 C 36,75 45,66 50,60 C 55,66 64,75 74,68 C 85,60 80,35 53,40 C 65,42 70,55 65,60 C 55,68 50,60 50,60 C 50,60 45,68 35,60 C 30,55 35,42 47,40 Z" />

    <path d="M 50,104 L 42,72 L 50,66 L 58,72 Z" />
    <path d="M 22,92 L 35,68 L 28,62 L 15,76 Z" />
    <path d="M 78,92 L 65,68 L 72,62 L 85,76 Z" />
    <path d="M 4,72 L 22,58 L 15,50 L 0,62 Z" />
    <path d="M 96,72 L 78,58 L 85,50 L 100,62 Z" />
    
    <polygon points="45,60 55,60 50,70" />
  </g>
</svg>
